<?xml version="1.0" encoding="UTF-8" standalone="no"?>
<!-- Created with Inkscape (http://www.inkscape.org/) -->

<svg
   xmlns:dc="http://purl.org/dc/elements/1.1/"
   xmlns:cc="http://creativecommons.org/ns#"
   xmlns:rdf="http://www.w3.org/1999/02/22-rdf-syntax-ns#"
   xmlns:svg="http://www.w3.org/2000/svg"
   xmlns="http://www.w3.org/2000/svg"
   xmlns:sodipodi="http://sodipodi.sourceforge.net/DTD/sodipodi-0.dtd"
   xmlns:inkscape="http://www.inkscape.org/namespaces/inkscape"
   width="26.130602mm"
   height="39.109226mm"
   viewBox="0 0 92.588747 138.576"
   id="svg5013"
   version="1.1"
   inkscape:version="0.91 r13725"
   sodipodi:docname="creatividad.svg">
  <defs
     id="defs5015" />
  <sodipodi:namedview
     id="base"
     pagecolor="#ffffff"
     bordercolor="#666666"
     borderopacity="1.0"
     inkscape:pageopacity="0.0"
     inkscape:pageshadow="2"
     inkscape:zoom="2.8"
     inkscape:cx="0.53342886"
     inkscape:cy="35.723906"
     inkscape:document-units="px"
     inkscape:current-layer="layer1"
     showgrid="false"
     fit-margin-top="0"
     fit-margin-left="0"
     fit-margin-right="0"
     fit-margin-bottom="0"
     inkscape:window-width="1920"
     inkscape:window-height="1056"
     inkscape:window-x="0"
     inkscape:window-y="24"
     inkscape:window-maximized="1" />
  <metadata
     id="metadata5018">
    <rdf:RDF>
      <cc:Work
         rdf:about="">
        <dc:format>image/svg+xml</dc:format>
        <dc:type
           rdf:resource="http://purl.org/dc/dcmitype/StillImage" />
        <dc:title />
      </cc:Work>
    </rdf:RDF>
  </metadata>
  <g
     inkscape:label="Layer 1"
     inkscape:groupmode="layer"
     id="layer1"
     transform="translate(-292.03114,-20.121083)">
    <g
       id="g124"
       transform="matrix(1.25,0,0,-1.25,355.45926,123.75446)"
       style="fill:#ffffff">
      <path
         d="m 0,0 -27.411,0 c -2.038,0 -3.696,-1.653 -3.696,-3.694 0,-2.042 1.658,-3.697 3.696,-3.697 l 27.411,0 c 2.039,0 3.696,1.655 3.696,3.697 C 3.696,-1.653 2.039,0 0,0"
         style="fill:#ffffff;fill-opacity:1;fill-rule:nonzero;stroke:none"
         id="path126"
         inkscape:connector-curvature="0" />
    </g>
    <g
       id="g128"
       transform="matrix(1.25,0,0,-1.25,329.34601,151.03708)"
       style="fill:#ffffff">
      <path
         d="m 0,0 0,-2.012 c 0,-2.275 1.84,-4.116 4.113,-4.116 l 6.14,0 c 2.27,0 4.115,1.841 4.115,4.116 l 0,2.012 c 4.657,0.331 8.341,4.173 8.341,8.911 l -31.053,0 C -8.344,4.173 -4.655,0.331 0,0"
         style="fill:#ffffff;fill-opacity:1;fill-rule:nonzero;stroke:none"
         id="path130"
         inkscape:connector-curvature="0" />
    </g>
    <g
       id="g132"
       transform="matrix(1.25,0,0,-1.25,338.40239,36.184833)"
       style="fill:#ffffff">
      <path
         d="m 0,0 c -13.147,0 -23.84,-10.691 -23.84,-23.837 0,-2.04 -1.652,-3.694 -3.695,-3.694 -2.043,0 -3.694,1.654 -3.694,3.694 0,17.22 14.008,31.228 31.229,31.228 2.04,0 3.698,-1.655 3.698,-3.693 C 3.698,1.656 2.04,0 0,0 m -0.061,12.851 c -20.454,0 -37.036,-16.582 -37.036,-37.036 0,-8.631 2.971,-16.552 7.927,-22.842 4.385,-5.56 8.544,-11.638 12.125,-17.75 l 33.963,0 c 3.618,6.171 7.701,12.134 12.129,17.753 4.954,6.287 7.927,14.211 7.927,22.839 0,20.454 -16.582,37.036 -37.035,37.036"
         style="fill:#ffffff;fill-opacity:1;fill-rule:nonzero;stroke:none"
         id="path134"
         inkscape:connector-curvature="0" />
    </g>
  </g>
</svg>
