<?xml version="1.0" encoding="UTF-8" standalone="no"?>
<!-- Created with Inkscape (http://www.inkscape.org/) -->

<svg
   xmlns:dc="http://purl.org/dc/elements/1.1/"
   xmlns:cc="http://creativecommons.org/ns#"
   xmlns:rdf="http://www.w3.org/1999/02/22-rdf-syntax-ns#"
   xmlns:svg="http://www.w3.org/2000/svg"
   xmlns="http://www.w3.org/2000/svg"
   xmlns:sodipodi="http://sodipodi.sourceforge.net/DTD/sodipodi-0.dtd"
   xmlns:inkscape="http://www.inkscape.org/namespaces/inkscape"
   width="39.159355mm"
   height="37.677547mm"
   viewBox="0 0 138.75362 133.50312"
   id="svg5622"
   version="1.1"
   inkscape:version="0.91 r13725"
   sodipodi:docname="tradicion.svg">
  <defs
     id="defs5624" />
  <sodipodi:namedview
     id="base"
     pagecolor="#ffffff"
     bordercolor="#666666"
     borderopacity="1.0"
     inkscape:pageopacity="0.0"
     inkscape:pageshadow="2"
     inkscape:zoom="0.98994949"
     inkscape:cx="280.58815"
     inkscape:cy="-114.39702"
     inkscape:document-units="px"
     inkscape:current-layer="layer1"
     showgrid="false"
     fit-margin-top="0"
     fit-margin-left="0"
     fit-margin-right="0"
     fit-margin-bottom="0"
     inkscape:window-width="1920"
     inkscape:window-height="1056"
     inkscape:window-x="0"
     inkscape:window-y="24"
     inkscape:window-maximized="1" />
  <metadata
     id="metadata5627">
    <rdf:RDF>
      <cc:Work
         rdf:about="">
        <dc:format>image/svg+xml</dc:format>
        <dc:type
           rdf:resource="http://purl.org/dc/dcmitype/StillImage" />
        <dc:title></dc:title>
      </cc:Work>
    </rdf:RDF>
  </metadata>
  <g
     inkscape:label="Layer 1"
     inkscape:groupmode="layer"
     id="layer1"
     transform="translate(-246.33746,-88.467783)">
    <g
       id="g112"
       transform="matrix(1.25,0,0,-1.25,360.7635,160.03872)"
       style="stroke:#ffffff">
      <path
         d="m 0,0 0,40.856 c -2.96,-0.618 -5.572,-0.36 -7.723,1.813 -2.218,2.244 -2.053,5.011 -1.558,7.878 l -54.572,0 c 0.462,-2.712 0.65,-5.295 -1.245,-7.526 -1.91,-2.25 -4.472,-2.671 -7.199,-2.427 l 0,-45.522 c 0.682,0.252 1.235,0.408 1.744,0.655 2.509,1.216 4.992,2.48 7.504,3.68 6.563,3.135 12.821,2.904 18.571,-1.865 9.338,-7.743 14.701,-17.83 17.13,-29.565 0.628,-3.025 0.867,-6.133 1.296,-9.296 l -10,0 c -0.956,3.391 -1.878,6.653 -2.797,9.912 -0.22,-0.04 -0.441,-0.084 -0.664,-0.124 l 0,-9.759 -21.995,0 c 0.149,2.788 -0.483,5.199 -2.345,7.188 -1.891,2.02 -4.33,2.764 -7.126,2.849 l 0,13.662 c -0.195,0.069 -0.391,0.137 -0.588,0.204 -0.282,-0.606 -0.793,-1.206 -0.809,-1.818 -0.079,-3.432 -0.038,-6.867 -0.038,-10.3 l 0,-3.712 c 3.023,0.324 5.607,0.028 7.607,-2.199 1.991,-2.215 1.879,-4.856 1.398,-7.602 l 54.53,0 c -0.511,2.812 -0.577,5.408 1.404,7.668 2.038,2.322 4.76,2.3 7.609,2.223 0,6.602 0.029,12.995 -0.052,19.386 -0.007,0.509 -0.773,1.007 -1.188,1.508 -0.195,-0.109 -0.39,-0.217 -0.584,-0.326 l 0,-18.691 c -6.349,-0.532 -8.448,-2.807 -9.428,-10.056 l -13.098,0 c -0.651,13.301 -4.759,25.234 -13.515,35.809 2.891,2.731 5.588,5.546 8.56,8.03 6.285,5.255 13.122,5.547 20.292,1.831 C -6.011,2.876 -3.079,1.509 0,0 Z m -77.914,7.732 c -2.348,-7.244 -1.344,-14.783 -1.659,-22.194 -4.985,-0.574 -9.439,2.946 -10.557,8.26 -1.004,4.764 -0.018,9.353 1.37,13.889 0.425,1.385 0.907,2.755 1.431,4.105 0.791,2.021 2.244,3.22 4.466,3.324 2.182,0.101 3.717,-0.897 4.949,-3.436 l 0,2.197 c 0,12.628 -0.001,25.254 0,37.883 0.002,3.41 1.083,4.496 4.467,4.496 24.961,10e-4 49.926,10e-4 74.889,0 3.281,0 4.41,-1.115 4.41,-4.375 0.002,-12.455 0,-24.907 0,-37.36 l 0,-1.657 c 1.324,0.74 2.551,1.779 3.955,2.133 2.256,0.57 4.368,-0.617 5.25,-2.764 C 17.189,7.043 18.708,1.704 18.429,-4.004 18.12,-10.226 13.564,-14.765 7.567,-14.568 7.07,-7.3 8.269,0.124 5.852,7.278 l 0,-1.806 c 0,-16.527 0.002,-33.053 0,-49.579 0,-3.314 -1.09,-4.435 -4.349,-4.435 -25.022,-0.005 -50.047,-0.005 -75.065,0 -3.261,0 -4.35,1.123 -4.352,4.436 -0.001,16.585 0,33.168 0,49.753 l 0,2.085 z"
         style="fill:none;stroke:#ffffff;stroke-width:2;stroke-linecap:butt;stroke-linejoin:miter;stroke-miterlimit:10;stroke-dasharray:none;stroke-opacity:1"
         id="path114"
         inkscape:connector-curvature="0" />
    </g>
    <g
       id="g116"
       transform="matrix(1.25,0,0,-1.25,356.4116,129.90085)"
       style="stroke:#ffffff">
      <path
         d="m 0,0 c -0.021,-9.347 -7.408,-16.721 -16.73,-16.706 -9.112,0.016 -16.534,7.541 -16.518,16.743 0.014,9.152 7.538,16.682 16.643,16.653 C -7.461,16.659 0.017,9.144 0,0 Z"
         style="fill:none;stroke:#ffffff;stroke-width:2;stroke-linecap:butt;stroke-linejoin:miter;stroke-miterlimit:10;stroke-dasharray:none;stroke-opacity:1"
         id="path118"
         inkscape:connector-curvature="0" />
    </g>
    <g
       id="g120"
       transform="matrix(1.25,0,0,-1.25,294.472,157.42522)"
       style="stroke:#ffffff">
      <path
         d="m 0,0 c -8.665,0.083 -15.691,7.104 -15.674,15.657 0.02,8.983 7.131,15.902 16.24,15.801 C 9.014,31.364 16.021,24.047 15.903,15.443 15.786,6.91 8.582,-0.085 0,0 Z"
         style="fill:none;stroke:#ffffff;stroke-width:2;stroke-linecap:butt;stroke-linejoin:miter;stroke-miterlimit:10;stroke-dasharray:none;stroke-opacity:1"
         id="path122"
         inkscape:connector-curvature="0" />
    </g>
  </g>
</svg>
