<?xml version="1.0" encoding="UTF-8" standalone="no"?>
<!-- Created with Inkscape (http://www.inkscape.org/) -->

<svg
   xmlns:dc="http://purl.org/dc/elements/1.1/"
   xmlns:cc="http://creativecommons.org/ns#"
   xmlns:rdf="http://www.w3.org/1999/02/22-rdf-syntax-ns#"
   xmlns:svg="http://www.w3.org/2000/svg"
   xmlns="http://www.w3.org/2000/svg"
   xmlns:sodipodi="http://sodipodi.sourceforge.net/DTD/sodipodi-0.dtd"
   xmlns:inkscape="http://www.inkscape.org/namespaces/inkscape"
   width="744.09448819"
   height="1052.3622047"
   id="svg2"
   version="1.1"
   inkscape:version="0.48.4 r9939"
   sodipodi:docname="logos.svg">
  <defs
     id="defs4" />
  <sodipodi:namedview
     id="base"
     pagecolor="#ffffff"
     bordercolor="#666666"
     borderopacity="1.0"
     inkscape:pageopacity="0.0"
     inkscape:pageshadow="2"
     inkscape:zoom="0.49497475"
     inkscape:cx="327.31406"
     inkscape:cy="375.82367"
     inkscape:document-units="px"
     inkscape:current-layer="layer1"
     showgrid="false"
     showguides="true"
     inkscape:guide-bbox="true"
     inkscape:window-width="1222"
     inkscape:window-height="955"
     inkscape:window-x="1652"
     inkscape:window-y="60"
     inkscape:window-maximized="0">
    <sodipodi:guide
       orientation="1,0"
       position="97.232143,-5.3571429"
       id="guide3929" />
  </sodipodi:namedview>
  <metadata
     id="metadata7">
    <rdf:RDF>
      <cc:Work
         rdf:about="">
        <dc:format>image/svg+xml</dc:format>
        <dc:type
           rdf:resource="http://purl.org/dc/dcmitype/StillImage" />
        <dc:title></dc:title>
      </cc:Work>
    </rdf:RDF>
  </metadata>
  <g
     inkscape:label="Layer 1"
     inkscape:groupmode="layer"
     id="layer1">
    <path
       inkscape:transform-center-y="22.919678"
       d="m 154.55335,738.36853 c -20.25085,0 -77.628263,-99.38058 -67.502838,-116.91833 10.125424,-17.53775 124.880238,-17.53776 135.005668,-10e-6 10.12542,17.53775 -47.25198,116.91834 -67.50283,116.91834 z"
       inkscape:randomized="0"
       inkscape:rounded="0.15"
       inkscape:flatsided="true"
       sodipodi:arg2="2.6179939"
       sodipodi:arg1="1.5707963"
       sodipodi:r2="38.972778"
       sodipodi:r1="77.945557"
       sodipodi:cy="660.42297"
       sodipodi:cx="154.55334"
       sodipodi:sides="3"
       id="path3894"
       style="fill:none;stroke:#000000;stroke-width:2.8447867;stroke-miterlimit:4;stroke-opacity:1;stroke-dasharray:none"
       sodipodi:type="star"
       transform="matrix(1.1761866,0,0,1.1761866,14.454035,-272.60891)" />
    <path
       style="fill:#808080;fill-opacity:1;stroke:none"
       d="M 516.15386,52.973513 470.56011,131.91101 425.02886,53.036013 c -10.16496,7.06732 -18.61462,16.43387 -24.59375,27.34375 L 468.77886,198.7547 c 0.6139,0.014 1.22651,0.031 1.84375,0.031 0.57541,0 1.14624,-0.019 1.71875,-0.031 l 68.4375,-118.468687 c -5.99347,-10.90445 -14.44777,-20.25658 -24.625,-27.3125 z"
       id="path3013"
       inkscape:connector-curvature="0" />
    <g
       id="g3826"
       transform="translate(462.06897,-768.42661)"
       style="fill:#60c5cb;fill-opacity:1;stroke:none">
      <path
         id="path3013-5"
         d="m -174.28572,830.93364 c -16.95579,0 -32.65278,5.28388 -45.59375,14.28125 l 45.53125,78.87504 45.59375,-78.93754 c -12.9244,-8.96054 -28.61347,-14.21875 -45.53125,-14.21875 z m 70.15625,41.53125 -68.4375,118.46874 c 43.39408,-0.9161 78.281254,-36.3862 78.281254,-79.99999 0,-13.94956 -3.56785,-27.05044 -9.843754,-38.46875 z m -140.34375,0.0937 c -6.2468,11.39828 -9.8125,24.46021 -9.8125,38.375 0,43.57194 34.82011,79.01864 78.15625,80.00004 l -68.34375,-118.37499 z"
         style="fill:#60c5cb;fill-opacity:1;stroke:none"
         inkscape:connector-curvature="0" />
    </g>
    <path
       transform="matrix(1.0534946,0,0,1.0534946,-43.205211,-98.369979)"
       d="m 244.45691,572.53973 a 17.172594,17.172594 0 1 1 -34.34519,0 17.172594,17.172594 0 1 1 34.34519,0 z"
       sodipodi:ry="17.172594"
       sodipodi:rx="17.172594"
       sodipodi:cy="572.53973"
       sodipodi:cx="227.28432"
       id="path3931"
       style="fill:none;stroke:#b3b3b3;stroke-width:8.2472105;stroke-miterlimit:4;stroke-dasharray:none"
       sodipodi:type="arc" />
    <path
       transform="matrix(1.6573394,0,0,1.6573394,-180.44968,-444.09515)"
       d="m 244.45691,572.53973 a 17.172594,17.172594 0 1 1 -34.34519,0 17.172594,17.172594 0 1 1 34.34519,0 z"
       sodipodi:ry="17.172594"
       sodipodi:rx="17.172594"
       sodipodi:cy="572.53973"
       sodipodi:cx="227.28432"
       id="path3935"
       style="fill:none;stroke:#b3b3b3;stroke-width:2.99564195;stroke-miterlimit:4;stroke-dasharray:none"
       sodipodi:type="arc" />
    <text
       xml:space="preserve"
       style="font-size:98.27516937px;font-style:normal;font-weight:normal;line-height:125%;letter-spacing:0px;word-spacing:0px;fill:#000000;fill-opacity:1;stroke:none;font-family:Sans"
       x="280.58978"
       y="559.3924"
       id="text3939"
       sodipodi:linespacing="125%"><tspan
         sodipodi:role="line"
         id="tspan3941"
         x="280.58978"
         y="559.3924"
         style="font-style:normal;font-variant:normal;font-weight:normal;font-stretch:normal;font-family:Sawasdee;-inkscape-font-specification:Sawasdee">IDRILLETE</tspan></text>
    <path
       inkscape:connector-curvature="0"
       id="path3943"
       d="m 277.75786,737.85694 -45.59375,78.9375 -45.53125,-78.875 c -10.16496,7.06732 -18.61462,16.43387 -24.59375,27.34375 l 68.34375,118.37494 c 0.6139,0.014 1.22651,0.031 1.84375,0.031 0.57541,0 1.14624,-0.019 1.71875,-0.031 l 68.4375,-118.46869 c -5.99347,-10.90445 -14.44777,-20.25658 -24.625,-27.3125 z"
       style="fill:#808080;fill-opacity:1;stroke:none" />
    <text
       sodipodi:linespacing="125%"
       id="text3945"
       y="850.31635"
       x="308.87405"
       style="font-size:98.27516937000000041px;font-style:normal;font-weight:normal;line-height:125%;letter-spacing:0px;word-spacing:0px;fill:#666666;fill-opacity:1;stroke:none;font-family:Sawasdee;stroke-width:0.69999999999999996;stroke-miterlimit:4;stroke-dasharray:none;-inkscape-font-specification:Sawasdee;font-stretch:normal;font-variant:normal"
       xml:space="preserve"><tspan
         style="font-style:normal;font-variant:normal;font-weight:normal;font-stretch:normal;font-family:Sawasdee;-inkscape-font-specification:Sawasdee;stroke:none;fill:#666666;stroke-width:0.69999999999999996;stroke-miterlimit:4;stroke-dasharray:none"
         y="850.31635"
         x="308.87405"
         id="tspan3947"
         sodipodi:role="line">IDRILLETE</tspan></text>
  </g>
</svg>
